<svg width="26" height="30" viewBox="0 0 26 30" fill="none" xmlns="http://www.w3.org/2000/svg">
<path d="M11.1429 21C11.1429 21.3978 11.3385 21.7794 11.6868 22.0607C12.0351 22.342 12.5075 22.5 13 22.5C13.4925 22.5 13.9649 22.342 14.3132 22.0607C14.6615 21.7794 14.8571 21.3978 14.8571 21H20.4286C21.7824 21 23.0509 20.7075 24.1429 20.1975V27C24.1429 27.7956 23.7515 28.5587 23.055 29.1213C22.3584 29.6839 21.4137 30 20.4286 30H5.57143C4.58634 30 3.6416 29.6839 2.94503 29.1213C2.24847 28.5587 1.85714 27.7956 1.85714 27V20.1975C2.94914 20.7075 4.21757 21 5.57143 21H11.1429ZM14.8571 19.5V15C14.8571 14.6022 14.6615 14.2206 14.3132 13.9393C13.9649 13.658 13.4925 13.5 13 13.5C12.5075 13.5 12.0351 13.658 11.6868 13.9393C11.3385 14.2206 11.1429 14.6022 11.1429 15V19.5H5.57143C4.09379 19.5 2.67668 19.0259 1.63183 18.182C0.586988 17.3381 0 16.1935 0 15L0 10.5C0 9.30653 0.586988 8.16193 1.63183 7.31802C2.67668 6.47411 4.09379 6 5.57143 6H20.4286C21.9062 6 23.3233 6.47411 24.3682 7.31802C25.413 8.16193 26 9.30653 26 10.5V15C26 16.1935 25.413 17.3381 24.3682 18.182C23.3233 19.0259 21.9062 19.5 20.4286 19.5H14.8571ZM9.28571 4.5H5.57143C4.93071 4.5 4.30857 4.566 3.71429 4.689V2.25C3.71429 1.65326 4.00778 1.08097 4.5302 0.65901C5.05263 0.237053 5.76118 3.35276e-08 6.5 3.35276e-08C7.23882 3.35276e-08 7.94737 0.237053 8.4698 0.65901C8.99222 1.08097 9.28571 1.65326 9.28571 2.25V4.5ZM22.2857 4.689C21.679 4.56312 21.055 4.49961 20.4286 4.5H16.7143V2.25C16.7143 1.65326 17.0078 1.08097 17.5302 0.65901C18.0526 0.237053 18.7612 0 19.5 0C20.2388 0 20.9474 0.237053 21.4698 0.65901C21.9922 1.08097 22.2857 1.65326 22.2857 2.25V4.689Z" fill="black"/>
</svg>
