<svg width="27" height="31" viewBox="0 0 27 31" fill="none" xmlns="http://www.w3.org/2000/svg">
<path d="M13.6239 0C21.1481 4.4779e-05 27 6.93961 27 15.5C27 19.5325 25.8742 23.7219 23.6558 26.4791C21.165 29.575 17.6038 31 13.6239 31C9.64406 31 6.08262 29.575 3.59174 26.4791C1.37344 23.7219 7.62806e-08 19.5325 0 15.5C0 6.93959 6.09968 0 13.6239 0ZM13.5272 9.01818C11.7966 9.0182 9.98941 9.67978 8.94454 11.0437C8.08967 12.1598 7.83 13.813 7.83 15.3987C7.83 15.4325 7.83059 15.4661 7.83105 15.4997C7.83058 15.5335 7.83 15.5674 7.83 15.6013C7.83 17.187 8.08989 18.8402 8.9448 19.9562C9.98968 21.3201 11.7967 21.9818 13.5272 21.9818C15.2577 21.9818 17.0649 21.3202 18.1098 19.9562C18.9647 18.8402 19.2246 17.187 19.2246 15.6013C19.2246 15.5674 19.2237 15.5335 19.2233 15.4997C19.2237 15.4661 19.2246 15.4325 19.2246 15.3987C19.2246 13.813 18.9647 12.1598 18.1098 11.0437C17.0649 9.67976 15.2577 9.01818 13.5272 9.01818Z" fill="black"/>
<path d="M25.11 15.5C25.11 7.87631 19.9924 2.0642 13.7711 1.97383L13.6239 1.97273C7.29351 1.97273 1.89 7.86563 1.89 15.5C1.89 19.126 3.14028 22.8503 5.03903 25.2103L5.13659 25.3298C7.19704 27.8152 10.1439 29.0273 13.6239 29.0273V31C9.64406 31 6.08262 29.575 3.59174 26.4791C1.37344 23.7219 7.62806e-08 19.5325 0 15.5C0 6.93959 6.09968 0 13.6239 0C21.1481 4.4779e-05 27 6.93961 27 15.5C27 19.5325 25.8742 23.7219 23.6558 26.4791C21.165 29.575 17.6038 31 13.6239 31V29.0273C17.1592 29.0273 20.1441 27.7763 22.2086 25.2103L22.2948 25.1016C24.035 22.868 25.0445 19.3918 25.1068 15.8487L25.11 15.5ZM19.2246 15.3987C19.2246 13.813 18.9647 12.1598 18.1098 11.0437C17.0649 9.67976 15.2577 9.01818 13.5272 9.01818C11.7966 9.0182 9.98941 9.67978 8.94454 11.0437C8.08967 12.1598 7.83 13.813 7.83 15.3987C7.83 15.4325 7.83059 15.4661 7.83105 15.4997C7.83058 15.5335 7.83 15.5674 7.83 15.6013C7.83 17.187 8.08989 18.8402 8.9448 19.9562C9.98968 21.3201 11.7967 21.9818 13.5272 21.9818C15.2577 21.9818 17.0649 21.3202 18.1098 19.9562C18.9647 18.8402 19.2246 17.187 19.2246 15.6013C19.2246 15.5674 19.2237 15.5335 19.2233 15.4997C19.2237 15.4661 19.2246 15.4325 19.2246 15.3987ZM21.1133 15.4997L21.1146 15.6013C21.1146 17.2534 20.8707 19.3932 19.7018 21.0312L19.5858 21.1881C18.0763 23.1585 15.6377 23.9545 13.5272 23.9545C11.4167 23.9545 8.97822 23.1586 7.46877 21.1884C6.27921 19.6355 5.97635 17.5826 5.94316 15.9269L5.94 15.6013C5.94 15.5646 5.94041 15.5271 5.94079 15.4997L5.94 15.3987C5.94 13.6936 6.19943 11.4684 7.46824 9.8119L7.53996 9.72025C9.05417 7.81663 11.4497 7.04548 13.5272 7.04545L13.726 7.04793C15.7892 7.09648 18.1235 7.90297 19.5858 9.8119L19.7018 9.96877C20.8707 11.6068 21.1146 13.7465 21.1146 15.3987L21.1133 15.4997Z" fill="black"/>
<path d="M11.34 13.3862C11.34 12.2189 12.2466 11.2726 13.365 11.2726C14.4834 11.2726 15.39 12.2189 15.39 13.3862V17.6135C15.39 18.7808 14.4834 19.7271 13.365 19.7271C12.2466 19.7271 11.34 18.7808 11.34 17.6135V13.3862Z" fill="black"/>
<path d="M15.12 17.6135V13.3862C15.12 12.3745 14.3343 11.5544 13.365 11.5544C12.3957 11.5544 11.61 12.3745 11.61 13.3862V17.6135C11.61 18.6252 12.3957 19.4453 13.365 19.4453V19.7271C12.2466 19.7271 11.34 18.7808 11.34 17.6135V13.3862C11.34 12.2189 12.2466 11.2726 13.365 11.2726C14.4834 11.2726 15.39 12.2189 15.39 13.3862V17.6135C15.39 18.7808 14.4834 19.7271 13.365 19.7271V19.4453C14.3343 19.4453 15.12 18.6252 15.12 17.6135Z" fill="black"/>
<path d="M13.5272 9.01818C15.2577 9.01818 17.0649 9.67976 18.1098 11.0437C18.4818 11.5294 18.7412 12.1171 18.9154 12.7564H8.13916C8.31342 12.1171 8.57251 11.5294 8.94454 11.0437C9.98941 9.67978 11.7966 9.0182 13.5272 9.01818Z" fill="black"/>
<path d="M13.7157 7.61118C15.6695 7.65734 17.8305 8.42275 19.1642 10.1638L19.2581 10.2901C19.7164 10.9278 20.0174 11.6495 20.2139 12.3704L20.703 14.1651H6.35131L6.84043 12.3704L6.88129 12.2262C7.09196 11.5056 7.41051 10.7899 7.8901 10.1638L8.02167 9.9981C9.40771 8.31974 11.5878 7.60898 13.5271 7.60898L13.7157 7.61118ZM13.5272 9.01818C11.7966 9.0182 9.98941 9.67978 8.94454 11.0437C8.57251 11.5294 8.31342 12.1171 8.13916 12.7564H18.9154C18.7412 12.1171 18.4818 11.5294 18.1098 11.0437C17.0649 9.67976 15.2577 9.01818 13.5272 9.01818Z" fill="black"/>
</svg>
